<?xml version="1.0" encoding="iso-8859-1"?>
<!-- Generator: Adobe Illustrator 19.0.0, SVG Export Plug-In . SVG Version: 6.00 Build 0)  -->
<svg version="1.1" id="Capa_1" xmlns="http://www.w3.org/2000/svg" xmlns:xlink="http://www.w3.org/1999/xlink" x="0px" y="0px"
	 viewBox="0 0 512 512" style="enable-background:new 0 0 512 512;" xml:space="preserve">
<path style="fill:#D7E9FF;" d="M494,248.004C494,380.578,386.594,488,254,488S14,380.578,14,248.004C14,115.402,121.406,8,254,8
	S494,115.402,494,248.004z"/>
<path style="fill:#FFFFFF;" d="M414,248.016c0,88.281-71.641,159.969-160,159.969S94,336.297,94,248.016
	C94,159.703,165.641,88,254,88S414,159.703,414,248.016z"/>
<path style="fill:#D7E9FF;" d="M254,4c13.281,0,24,10.32,24,25.922c0,7.52-3.359,14.719-8,20.238c-4.961,5.918-11.281,9.84-16,9.84
	s-11.039-3.922-16-9.84c-4.641-5.52-8-12.719-8-20.238C230,14.32,240.719,4,254,4z"/>
<path style="fill:#FFFFFF;" d="M246,50.16c-4.641-5.52-8-12.719-8-20.238c0-13.992,8.641-23.668,20-25.531
	C256.695,4.176,255.367,4,254,4c-13.281,0-24,10.32-24,25.922c0,7.52,3.359,14.719,8,20.238c4.961,5.918,11.281,9.84,16,9.84
	c1.242,0,2.594-0.301,4-0.805C254.047,57.773,249.656,54.523,246,50.16z"/>
<path style="fill:#94C1FF;" d="M262,50.16c4.641-5.52,8-12.719,8-20.238c0-13.992-8.641-23.668-20-25.531
	C251.305,4.176,252.633,4,254,4c13.281,0,24,10.32,24,25.922c0,7.52-3.359,14.719-8,20.238c-4.961,5.918-11.281,9.84-16,9.84
	c-1.242,0-2.594-0.301-4-0.805C253.953,57.773,258.344,54.523,262,50.16z"/>
<path style="fill:#D7E9FF;" d="M302,84l-32-16V50.16c-4.961,5.918-11.281,9.84-16,9.84s-11.039-3.922-16-9.84V68l-32,16
	c-16,16.641-8,72-8,72c0,8.879,7.117,16,16,16c0,0,0,0.078,8,0l0.156,8v16c-16,32,8.562,94.484,8,96c-14.633,35.922,8,64,8,64v24
	H238c-4.398,0-8,3.602-8,8v8h48v-8c0-4.398-3.602-8-8-8v-24c0,0,22.562-28.078,8-64c-0.641-1.516,24-64,8-96v-16v-8c4.641,0,8,0,8,0
	c8.883,0,16-7.121,16-16C310,156,318,100.641,302,84z"/>
<g>
	<path style="fill:#94C1FF;" d="M302,84l-32-16l24,16c16,16.641,8,72,8,72c0,8.879-7.117,16-16,16c4.641,0,8,0,8,0
		c8.883,0,16-7.121,16-16C310,156,318,100.641,302,84z"/>
	<path style="fill:#94C1FF;" d="M278,180v16c16,32-8.641,94.484-8,96c14.562,35.922-8,64-8,64v24c4.398,0,12.398,0,8,0v-24
		c0,0,22.562-28.078,8-64c-0.641-1.516,24-64,8-96v-16v-8c0,0-3.359,0-8,0V180z"/>
</g>
<g>
	<path style="fill:#FFFFFF;" d="M206,156c0,0-8-55.359,8-72l24-16l-32,16c-16,16.641-8,72-8,72c0,8.879,7.117,16,16,16
		c0,0,0,0.078,8,0C213.117,172,206,164.879,206,156z"/>
	<path style="fill:#FFFFFF;" d="M246,380h0.156v-24c0,0-22.633-28.078-8-64c0.562-1.516-24-64-8-96v-16L230,172c-8,0.078-8,0-8,0
		l0.156,8v16c-16,32,8.562,94.484,8,96c-14.633,35.922,8,64,8,64v24H238C233.602,380,241.602,380,246,380z"/>
</g>
<polygon style="fill:#656D78;" points="326,484 326,492 182,492 182,484 182,412 326,412 "/>
<g>
	<polygon style="fill:#94C1FF;" points="326,484 326,492 182,492 182,484 182,412 326,412 	"/>
	<path style="fill:#94C1FF;" d="M166,492h16h144h16c4.398,0,8,3.602,8,8v8H158v-8C158,495.602,161.602,492,166,492z"/>
</g>
<path style="fill:#D7E9FF;" d="M174,492h-8c-4.398,0-8,3.602-8,8v8h8v-8C166,495.602,169.602,492,174,492z"/>
<path style="fill:#5C9EFF;" d="M334,492h8c4.398,0,8,3.602,8,8v8h-8v-8C342,495.602,338.398,492,334,492z"/>
<path style="fill:#D7E9FF;" d="M190,396h16h96h16c4.398,0,8,3.602,8,8v8H182v-8C182,399.602,185.602,396,190,396z"/>
<rect x="182" y="484" style="fill:#5C9EFF;" width="144" height="8"/>
<rect x="182" y="412" style="fill:#D7E9FF;" width="8" height="72"/>
<rect x="318" y="412" style="fill:#5C9EFF;" width="8" height="72"/>
<g>
	<path style="fill:#116FFF;" d="M254,64c-5.93,0-13.234-4.32-19.062-11.27C229.172,45.879,226,37.777,226,29.922
		C226,12.863,238.039,0,254,0s28,12.863,28,29.922c0,7.855-3.172,15.957-8.938,22.812C267.234,59.68,259.93,64,254,64z M254,8
		c-11.586,0-20,9.219-20,21.922c0,5.977,2.508,12.246,7.062,17.664C245.906,53.367,251.164,56,254,56s8.094-2.633,12.938-8.41
		C271.492,42.168,274,35.898,274,29.922C274,17.219,265.586,8,254,8z"/>
	<path style="fill:#116FFF;" d="M222,176c-2.109,0-3.875-1.645-3.992-3.777c-0.125-2.137,1.461-3.973,3.562-4.199
		c0.477-0.242,1.57-1.184,2.461-1.945c4.43-3.805,11.836-10.172,29.07-14.137c0.312-0.07,0.641-0.09,0.938-0.102
		C256.016,151.836,266,151.254,266,140c0-1.648-0.227-4.555-1.734-5.496c-1.898-1.188-6.195-0.055-8.484,1.078
		c-10.258,5.754-32.398,8.289-33.336,8.395c-1.125,0.09-2.266-0.238-3.109-0.996c-0.852-0.758-1.336-1.844-1.336-2.98v-8
		c0-2.211,1.789-4,4-4s4,1.789,4,4v3.426c6.773-1.004,19.562-3.281,26.047-6.914c1.148-0.582,9.992-4.805,16.414-0.816
		c3.68,2.27,5.539,6.41,5.539,12.305c0,5.824-1.797,10.555-5.336,14.059c-5.078,5.031-12.133,5.688-14.156,5.77
		c-15.031,3.523-21.43,9.02-25.258,12.316c-2.312,1.984-4.305,3.695-7.023,3.848C222.148,175.996,222.07,176,222,176z"/>
	<path style="fill:#116FFF;" d="M286,152h-8c-2.211,0-4-1.789-4-4s1.789-4,4-4h4v-12c0-2.211,1.789-4,4-4s4,1.789,4,4v16
		C290,150.211,288.211,152,286,152z"/>
	<path style="fill:#116FFF;" d="M254,384c-2.211,0-4-1.789-4-4V180c0-2.211,1.789-4,4-4s4,1.789,4,4v200
		C258,382.211,256.211,384,254,384z"/>
	<path style="fill:#116FFF;" d="M270,384c-2.211,0-4-1.789-4-4v-24c0-0.906,0.312-1.789,0.875-2.5
		c0.859-1.078,20.883-26.781,7.422-60c-0.656-1.547-0.461-2.195,1.453-8.383c4.75-15.398,19.211-62.254,6.672-87.328
		C282.148,197.234,282,196.621,282,196v-16c0-2.211,1.789-4,4-4s4,1.789,4,4v15.078c13.25,28.051-1.148,74.719-6.609,92.398
		c-0.562,1.82-1.008,3.227-1.25,4.117c12.93,33.43-3.922,59.891-8.141,65.742V380C274,382.211,272.211,384,270,384z"/>
	<path style="fill:#116FFF;" d="M238.156,384c-2.211,0-4-1.789-4-4v-22.664c-4.234-5.859-21.148-32.32-8.148-65.727
		c-0.242-0.844-0.656-2.141-1.18-3.828c-4.969-16.023-19.992-64.453-6.672-92.699V180c0-2.211,1.789-4,4-4s4,1.789,4,4v16
		c0,0.621-0.148,1.234-0.422,1.789c-12.617,25.234,1.953,72.195,6.734,87.617c1.812,5.844,2.008,6.453,1.438,7.984
		c-13.633,33.469,7.156,59.836,7.367,60.094c0.57,0.719,0.883,1.602,0.883,2.516v24C242.156,382.211,240.367,384,238.156,384z"/>
	<path style="fill:#116FFF;" d="M278,392c-2.211,0-4-1.789-4-4c0-2.203-1.797-4-4-4c-2.211,0-4-1.789-4-4s1.789-4,4-4
		c6.617,0,12,5.383,12,12C282,390.211,280.211,392,278,392z"/>
	<path style="fill:#116FFF;" d="M230,392c-2.211,0-4-1.789-4-4c0-6.617,5.383-12,12-12c2.211,0,4,1.789,4,4s-1.789,4-4,4
		c-2.203,0-4,1.797-4,4C234,390.211,232.211,392,230,392z"/>
	<path style="fill:#116FFF;" d="M270,184h-23.844c-2.211,0-4-1.789-4-4s1.789-4,4-4H270c2.211,0,4,1.789,4,4S272.211,184,270,184z"
		/>
	<path style="fill:#116FFF;" d="M246.156,184c-6.617,0-12-5.383-12-12c0-2.211,1.789-4,4-4s4,1.789,4,4c0,2.242,1.758,4,4,4
		c2.211,0,4,1.789,4,4S248.367,184,246.156,184z"/>
	<path style="fill:#116FFF;" d="M262,176c-6.617,0-12-5.383-12-12c0-2.211,1.789-4,4-4s4,1.789,4,4c0,2.207,1.797,4,4,4
		c2.211,0,4,1.789,4,4S264.211,176,262,176z"/>
	<path style="fill:#116FFF;" d="M302,88c-0.602,0-1.211-0.137-1.789-0.422l-32-16C266.859,70.898,266,69.516,266,68V50.16
		c0-2.211,1.789-4,4-4s4,1.789,4,4v15.367l29.789,14.895c1.977,0.988,2.773,3.391,1.789,5.367C304.875,87.191,303.461,88,302,88z"/>
	<path style="fill:#116FFF;" d="M268.75,176.035c-2.727,0-5.117-0.008-6.812-0.035c-2.211-0.035-3.969-1.852-3.938-4.062
		s1.578-3.809,4.062-3.938c3.367,0.059,9.477,0.043,15.469,0.016L294,168c2.211,0,4,1.789,4,4s-1.789,4-4,4l-16.445,0.016
		C274.531,176.027,271.477,176.035,268.75,176.035z"/>
	<path style="fill:#116FFF;" d="M294,176c-2.211,0-4-1.789-4-4s1.789-4,4-4c6.617,0,12-5.383,12-12c0-2.211,1.789-4,4-4s4,1.789,4,4
		C314,167.027,305.031,176,294,176z"/>
	<path style="fill:#116FFF;" d="M310.008,160c-0.195,0-0.383-0.012-0.578-0.043c-2.188-0.312-3.703-2.344-3.391-4.527
		c2.148-14.867,5.078-56.176-6.922-68.656c-1.531-1.594-1.484-4.125,0.109-5.656c1.586-1.52,4.133-1.484,5.656,0.109
		c17.156,17.848,9.414,73.008,9.078,75.344C313.672,158.562,311.961,160,310.008,160z"/>
	<path style="fill:#116FFF;" d="M206,88c-1.461,0-2.875-0.809-3.578-2.211c-0.984-1.977-0.188-4.379,1.789-5.367L234,65.527V50.16
		c0-2.211,1.789-4,4-4s4,1.789,4,4V68c0,1.516-0.859,2.898-2.211,3.578l-32,16C207.211,87.863,206.602,88,206,88z"/>
	<path style="fill:#116FFF;" d="M217.078,176.035c-4.688,0-4.898-0.211-5.891-1.191L214,172h4h-4l0.32-3.984
		c0.344,0.016,1.742,0.047,7.641-0.016c0.016,0,0.023,0,0.039,0c2.195,0,3.977,1.766,4,3.961c0.023,2.211-1.75,4.016-3.961,4.039
		C219.977,176.02,218.359,176.035,217.078,176.035z"/>
	<path style="fill:#116FFF;" d="M214,176c-11.031,0-20-8.973-20-20c0-2.211,1.789-4,4-4s4,1.789,4,4c0,6.617,5.383,12,12,12
		c2.211,0,4,1.789,4,4S216.211,176,214,176z"/>
	<path style="fill:#116FFF;" d="M197.992,160c-1.953,0-3.664-1.434-3.953-3.43c-0.336-2.336-8.078-57.496,9.078-75.344
		c1.531-1.594,4.078-1.629,5.656-0.109c1.594,1.531,1.641,4.062,0.109,5.656c-12,12.48-9.07,53.789-6.922,68.656
		c0.312,2.184-1.203,4.215-3.391,4.527C198.375,159.988,198.188,160,197.992,160z"/>
	<path style="fill:#116FFF;" d="M262,224c-2.211,0-4-1.789-4-4s1.789-4,4-4c4.68,0,5.961-2.539,8.203-9.266
		C272.281,200.516,275.117,192,286,192c2.211,0,4,1.789,4,4s-1.789,4-4,4c-4.68,0-5.961,2.539-8.203,9.266
		C275.719,215.484,272.883,224,262,224z"/>
	<path style="fill:#116FFF;" d="M246,224c-10.867,0-13.711-8.516-15.797-14.73c-2.234-6.691-3.508-9.223-8.086-9.27
		c-2.203-0.023-4.047-1.82-4.039-4.02c0.008-2.203,1.719-3.98,3.922-3.98h0.156c10.75,0.109,13.57,8.562,15.641,14.73
		c2.242,6.727,3.539,9.27,8.203,9.27c2.211,0,4,1.789,4,4S248.211,224,246,224z"/>
	<path style="fill:#116FFF;" d="M182,408c-2.211,0-4-1.789-4-4c0-6.617,5.383-12,12-12c2.211,0,4,1.789,4,4s-1.789,4-4,4
		c-2.203,0-4,1.797-4,4C186,406.211,184.211,408,182,408z"/>
	<path style="fill:#116FFF;" d="M326,408c-2.211,0-4-1.789-4-4c0-2.203-1.797-4-4-4c-2.211,0-4-1.789-4-4s1.789-4,4-4
		c6.617,0,12,5.383,12,12C330,406.211,328.211,408,326,408z"/>
	<path style="fill:#116FFF;" d="M318,400H190c-2.211,0-4-1.789-4-4s1.789-4,4-4h128c2.211,0,4,1.789,4,4S320.211,400,318,400z"/>
	<path style="fill:#116FFF;" d="M334,416H174c-2.211,0-4-1.789-4-4s1.789-4,4-4h160c2.211,0,4,1.789,4,4S336.211,416,334,416z"/>
	<path style="fill:#116FFF;" d="M182,488c-2.211,0-4-1.789-4-4v-72c0-2.211,1.789-4,4-4s4,1.789,4,4v72
		C186,486.211,184.211,488,182,488z"/>
	<path style="fill:#116FFF;" d="M326,488c-2.211,0-4-1.789-4-4v-72c0-2.211,1.789-4,4-4s4,1.789,4,4v72
		C330,486.211,328.211,488,326,488z"/>
	<path style="fill:#116FFF;" d="M158,512c-2.211,0-4-1.789-4-4v-8c0-2.211,1.789-4,4-4s4,1.789,4,4v8
		C162,510.211,160.211,512,158,512z"/>
	<path style="fill:#116FFF;" d="M342,496H166c-2.211,0-4-1.789-4-4s1.789-4,4-4h176c2.211,0,4,1.789,4,4S344.211,496,342,496z"/>
	<path style="fill:#116FFF;" d="M158,504c-2.211,0-4-1.789-4-4c0-6.617,5.383-12,12-12c2.211,0,4,1.789,4,4s-1.789,4-4,4
		c-2.203,0-4,1.797-4,4C162,502.211,160.211,504,158,504z"/>
	<path style="fill:#116FFF;" d="M350,512H158c-2.211,0-4-1.789-4-4s1.789-4,4-4h192c2.211,0,4,1.789,4,4S352.211,512,350,512z"/>
	<path style="fill:#116FFF;" d="M350,512c-2.211,0-4-1.789-4-4v-8c0-2.211,1.789-4,4-4s4,1.789,4,4v8
		C354,510.211,352.211,512,350,512z"/>
	<path style="fill:#116FFF;" d="M350,504c-2.211,0-4-1.789-4-4c0-2.203-1.797-4-4-4c-2.211,0-4-1.789-4-4s1.789-4,4-4
		c6.617,0,12,5.383,12,12C354,502.211,352.211,504,350,504z"/>
	<path style="fill:#116FFF;" d="M294,448h-80c-2.211,0-4-1.789-4-4s1.789-4,4-4h80c2.211,0,4,1.789,4,4S296.211,448,294,448z"/>
	<path style="fill:#116FFF;" d="M278,464h-48c-2.211,0-4-1.789-4-4s1.789-4,4-4h48c2.211,0,4,1.789,4,4S280.211,464,278,464z"/>
	<path style="fill:#116FFF;" d="M205.359,70.398c-1.766,0-3.383-1.18-3.867-2.965l-6.203-23.168
		c-0.57-2.133,0.695-4.328,2.836-4.898c2.156-0.57,4.32,0.703,4.898,2.828l6.203,23.168c0.57,2.133-0.695,4.328-2.836,4.898
		C206.047,70.355,205.695,70.398,205.359,70.398z M195.023,31.777c-1.766,0-3.383-1.176-3.867-2.965l-4.141-15.457
		c-0.57-2.133,0.695-4.328,2.836-4.898c2.117-0.578,4.32,0.691,4.898,2.828l4.141,15.457c0.57,2.133-0.695,4.328-2.836,4.898
		C195.711,31.734,195.367,31.777,195.023,31.777z"/>
	<path style="fill:#116FFF;" d="M180,123.84c-1.375,0-2.727-0.715-3.461-2l-32-55.41c-1.109-1.914-0.453-4.359,1.461-5.465
		c1.906-1.105,4.359-0.461,5.461,1.465l32,55.41c1.109,1.914,0.453,4.359-1.461,5.465C181.367,123.668,180.68,123.84,180,123.84z
		 M140,54.574c-1.375,0-2.727-0.715-3.461-2l-8-13.855c-1.109-1.914-0.453-4.359,1.461-5.465c1.906-1.098,4.359-0.457,5.461,1.465
		l8,13.855c1.109,1.914,0.453,4.359-1.461,5.465C141.367,54.402,140.68,54.574,140,54.574z"/>
	<path style="fill:#116FFF;" d="M204.156,202.16c-1.023,0-2.047-0.391-2.828-1.172l-100.094-100.09
		c-1.562-1.562-1.562-4.094,0-5.656s4.094-1.562,5.656,0l100.094,100.09c1.562,1.562,1.562,4.094,0,5.656
		C206.203,201.77,205.18,202.16,204.156,202.16z M92.75,90.754c-1.023,0-2.047-0.391-2.828-1.172L78.609,78.27
		c-1.562-1.562-1.562-4.094,0-5.656s4.094-1.562,5.656,0l11.312,11.312c1.562,1.562,1.562,4.094,0,5.656
		C94.797,90.363,93.773,90.754,92.75,90.754z"/>
	<path style="fill:#116FFF;" d="M200.883,221.359c-0.68,0-1.367-0.172-2-0.535L68.43,145.469c-1.914-1.105-2.57-3.551-1.461-5.465
		c1.102-1.918,3.562-2.551,5.461-1.465l130.453,75.355c1.914,1.105,2.57,3.551,1.461,5.465
		C203.609,220.645,202.258,221.359,200.883,221.359z M56.57,138.004c-0.68,0-1.367-0.172-2-0.535l-13.852-8.004
		c-1.914-1.105-2.57-3.555-1.461-5.465c1.109-1.918,3.555-2.562,5.461-1.465l13.852,8.004c1.914,1.105,2.57,3.555,1.461,5.465
		C59.289,137.289,57.945,138.004,56.57,138.004z"/>
	<path style="fill:#116FFF;" d="M196.031,236.496c-0.344,0-0.688-0.043-1.039-0.137L48.188,196.957
		c-2.133-0.574-3.398-2.766-2.82-4.898c0.57-2.133,2.766-3.391,4.898-2.828l146.805,39.402c2.133,0.574,3.398,2.766,2.82,4.898
		C199.414,235.32,197.797,236.496,196.031,236.496z M33.773,192.949c-0.344,0-0.688-0.043-1.039-0.137l-15.453-4.148
		c-2.133-0.574-3.398-2.766-2.82-4.898c0.57-2.137,2.75-3.391,4.898-2.828l15.453,4.148c2.133,0.574,3.398,2.766,2.82,4.898
		C37.156,191.773,35.539,192.949,33.773,192.949z"/>
	<path style="fill:#116FFF;" d="M194,252H42c-2.211,0-4-1.789-4-4s1.789-4,4-4h152c2.211,0,4,1.789,4,4S196.211,252,194,252z
		 M26,252H10c-2.211,0-4-1.789-4-4s1.789-4,4-4h16c2.211,0,4,1.789,4,4S28.211,252,26,252z"/>
	<path style="fill:#116FFF;" d="M18.32,315.125c-1.766,0-3.383-1.18-3.867-2.969c-0.57-2.133,0.695-4.328,2.828-4.898l15.453-4.141
		c2.156-0.57,4.328,0.695,4.906,2.828c0.57,2.133-0.695,4.328-2.828,4.898l-15.453,4.141
		C19.008,315.078,18.664,315.125,18.32,315.125z M49.227,306.836c-1.766,0-3.383-1.18-3.867-2.961
		c-0.57-2.141,0.695-4.328,2.828-4.906l146.82-39.34c2.164-0.566,4.328,0.691,4.906,2.828c0.57,2.137-0.695,4.324-2.828,4.902
		l-146.82,39.344C49.914,306.797,49.57,306.836,49.227,306.836z"/>
	<path style="fill:#116FFF;" d="M42.719,374c-1.383,0-2.727-0.719-3.461-2c-1.109-1.914-0.453-4.359,1.461-5.469l13.859-8
		c1.906-1.094,4.359-0.445,5.461,1.469c1.109,1.914,0.453,4.359-1.461,5.469l-13.859,8C44.086,373.828,43.398,374,42.719,374z
		 M70.43,358c-1.375,0-2.727-0.719-3.461-2c-1.109-1.922-0.453-4.359,1.461-5.469l131.625-76.016
		c1.906-1.102,4.359-0.453,5.461,1.469c1.109,1.906,0.453,4.359-1.461,5.461L72.43,357.461C71.797,357.828,71.109,358,70.43,358z"/>
	<path style="fill:#116FFF;" d="M81.438,424.484c-1.023,0-2.047-0.391-2.828-1.172c-1.562-1.562-1.562-4.102,0-5.656l11.32-11.312
		c1.562-1.562,4.094-1.562,5.656,0s1.562,4.094,0,5.656l-11.32,11.312C83.484,424.094,82.461,424.484,81.438,424.484z
		 M104.07,401.859c-1.023,0-2.047-0.391-2.828-1.172c-1.562-1.562-1.562-4.094,0-5.656l107.516-107.445
		c1.562-1.562,4.094-1.562,5.656,0s1.562,4.102,0,5.656L106.898,400.688C106.117,401.469,105.094,401.859,104.07,401.859z"/>
	<path style="fill:#116FFF;" d="M132,463.281c-0.68,0-1.367-0.172-2-0.531c-1.914-1.109-2.57-3.555-1.461-5.469l8-13.859
		c1.102-1.914,3.555-2.562,5.461-1.469c1.914,1.109,2.57,3.555,1.461,5.469l-8,13.859C134.727,462.562,133.375,463.281,132,463.281z
		 M147.992,435.562c-0.68,0-1.367-0.172-2-0.531c-1.914-1.109-2.57-3.547-1.461-5.469l61.609-106.766
		c1.094-1.906,3.531-2.562,5.461-1.461c1.914,1.102,2.57,3.555,1.461,5.461l-61.609,106.766
		C150.719,434.844,149.367,435.562,147.992,435.562z"/>
	<path style="fill:#116FFF;" d="M306.641,70.398c-0.344,0-0.688-0.043-1.031-0.137c-2.141-0.57-3.406-2.766-2.836-4.898
		l6.203-23.168c0.578-2.129,2.805-3.391,4.898-2.828c2.141,0.57,3.406,2.766,2.836,4.898l-6.203,23.168
		C310.023,69.219,308.406,70.398,306.641,70.398z M316.977,31.777c-0.344,0-0.688-0.043-1.031-0.137
		c-2.141-0.57-3.406-2.766-2.836-4.898l4.141-15.457c0.586-2.133,2.797-3.398,4.898-2.828c2.141,0.57,3.406,2.766,2.836,4.898
		l-4.141,15.457C320.359,30.598,318.742,31.777,316.977,31.777z"/>
	<path style="fill:#116FFF;" d="M332,123.84c-0.68,0-1.367-0.172-2-0.535c-1.914-1.105-2.57-3.551-1.461-5.465l32-55.41
		c1.102-1.918,3.547-2.559,5.461-1.465c1.914,1.105,2.57,3.551,1.461,5.465l-32,55.41C334.727,123.125,333.375,123.84,332,123.84z
		 M372,54.574c-0.68,0-1.367-0.172-2-0.535c-1.914-1.105-2.57-3.551-1.461-5.465l8-13.855c1.094-1.918,3.547-2.551,5.461-1.465
		c1.914,1.105,2.57,3.551,1.461,5.465l-8,13.855C374.727,53.859,373.375,54.574,372,54.574z"/>
	<path style="fill:#116FFF;" d="M307.844,202.16c-1.023,0-2.047-0.391-2.828-1.172c-1.562-1.562-1.562-4.094,0-5.656L405.039,95.266
		c1.562-1.57,4.094-1.562,5.656-0.008c1.562,1.562,1.562,4.094,0,5.656L310.672,200.988
		C309.891,201.77,308.867,202.16,307.844,202.16z M419.172,90.766c-1.023,0-2.047-0.391-2.828-1.168
		c-1.562-1.562-1.562-4.094,0-5.656l11.305-11.324c1.562-1.57,4.094-1.562,5.656-0.008c1.562,1.562,1.562,4.094,0,5.656L422,89.59
		C421.219,90.375,420.195,90.766,419.172,90.766z"/>
	<path style="fill:#116FFF;" d="M311.039,221.359c-1.375,0-2.727-0.715-3.461-2c-1.109-1.914-0.453-4.359,1.461-5.465
		l130.531-75.359c1.914-1.105,4.359-0.461,5.461,1.465c1.109,1.914,0.453,4.359-1.461,5.465l-130.531,75.359
		C312.406,221.188,311.719,221.359,311.039,221.359z M455.422,138c-1.383,0-2.727-0.719-3.461-2
		c-1.109-1.914-0.453-4.359,1.461-5.465l13.859-8c1.906-1.109,4.359-0.453,5.461,1.465c1.109,1.914,0.453,4.359-1.461,5.465
		l-13.859,8C456.789,137.828,456.102,138,455.422,138z"/>
	<path style="fill:#116FFF;" d="M315.961,236.477c-1.766,0-3.383-1.176-3.867-2.965c-0.57-2.133,0.695-4.328,2.828-4.898
		l146.812-39.383c2.156-0.57,4.328,0.691,4.906,2.828c0.57,2.133-0.695,4.328-2.828,4.898L317,236.34
		C316.648,236.434,316.305,236.477,315.961,236.477z M478.227,192.945c-1.766,0-3.383-1.176-3.867-2.965
		c-0.57-2.133,0.695-4.328,2.828-4.898l15.453-4.145c2.172-0.57,4.328,0.691,4.906,2.828c0.57,2.133-0.695,4.328-2.828,4.898
		l-15.453,4.145C478.914,192.902,478.57,192.945,478.227,192.945z"/>
	<path style="fill:#116FFF;" d="M502,252h-16c-2.211,0-4-1.789-4-4s1.789-4,4-4h16c2.211,0,4,1.789,4,4S504.211,252,502,252z
		 M470,252H318c-2.211,0-4-1.789-4-4s1.789-4,4-4h152c2.211,0,4,1.789,4,4S472.211,252,470,252z"/>
	<path style="fill:#116FFF;" d="M493.68,315.125c-0.344,0-0.688-0.047-1.039-0.141l-15.453-4.141
		c-2.133-0.57-3.398-2.766-2.828-4.898c0.578-2.133,2.766-3.398,4.906-2.828l15.453,4.141c2.133,0.57,3.398,2.766,2.828,4.898
		C497.062,313.945,495.445,315.125,493.68,315.125z M462.766,306.844c-0.344,0-0.688-0.047-1.031-0.141l-146.82-39.328
		c-2.141-0.57-3.406-2.766-2.836-4.898c0.578-2.129,2.797-3.383,4.898-2.828l146.82,39.328c2.141,0.57,3.406,2.766,2.836,4.898
		C466.148,305.656,464.531,306.844,462.766,306.844z"/>
	<path style="fill:#116FFF;" d="M469.281,374c-0.68,0-1.367-0.172-2-0.531l-13.859-8c-1.914-1.109-2.57-3.555-1.461-5.469
		c1.102-1.906,3.547-2.555,5.461-1.469l13.859,8c1.914,1.109,2.57,3.555,1.461,5.469C472.008,373.281,470.656,374,469.281,374z
		 M441.57,358c-0.68,0-1.367-0.172-2-0.531l-131.648-75.984c-1.914-1.109-2.57-3.555-1.461-5.469
		c1.102-1.906,3.555-2.555,5.461-1.469l131.648,75.992c1.914,1.102,2.57,3.555,1.461,5.461C444.297,357.281,442.945,358,441.57,358z
		"/>
	<path style="fill:#116FFF;" d="M430.477,424.484c-1.023,0-2.047-0.391-2.828-1.172L416.336,412c-1.562-1.562-1.562-4.094,0-5.656
		s4.094-1.562,5.656,0l11.312,11.312c1.562,1.562,1.562,4.094,0,5.656C432.523,424.094,431.5,424.484,430.477,424.484z
		 M407.852,401.852c-1.023,0-2.047-0.391-2.828-1.172L297.539,293.203c-1.562-1.562-1.562-4.094,0-5.656s4.094-1.562,5.656,0
		L410.68,395.023c1.562,1.562,1.562,4.094,0,5.656C409.898,401.461,408.875,401.852,407.852,401.852z"/>
	<path style="fill:#116FFF;" d="M380,463.281c-1.375,0-2.727-0.719-3.461-2l-8-13.859c-1.109-1.906-0.453-4.359,1.461-5.461
		c1.906-1.102,4.359-0.461,5.461,1.461l8,13.859c1.109,1.914,0.453,4.359-1.461,5.469C381.367,463.109,380.68,463.281,380,463.281z
		 M363.992,435.57c-1.375,0-2.719-0.711-3.461-2l-61.672-106.773c-1.109-1.906-0.453-4.359,1.461-5.461
		c1.906-1.102,4.344-0.461,5.461,1.461l61.672,106.773c1.109,1.914,0.453,4.359-1.461,5.461
		C365.359,435.398,364.672,435.57,363.992,435.57z"/>
</g>
<g>
</g>
<g>
</g>
<g>
</g>
<g>
</g>
<g>
</g>
<g>
</g>
<g>
</g>
<g>
</g>
<g>
</g>
<g>
</g>
<g>
</g>
<g>
</g>
<g>
</g>
<g>
</g>
<g>
</g>
</svg>
